HIERARCHY
ROOT Hips
{
	OFFSET 0.00 0.00 0.00
	CHANNELS 6 Xposition Yposition Zposition Xrotation Yrotation Zrotation
	JOINT LeftUpLeg
	{
		OFFSET 3.66344 0.00000 0.00000
		CHANNELS 3 Xrotation Yrotation Zrotation
		JOINT LeftLeg
		{
			OFFSET 0.00000 -16.09471 0.00000
			CHANNELS 3 Xrotation Yrotation Zrotation
			JOINT LeftFoot
			{
				OFFSET 0.00000 -15.20357 0.00000
				CHANNELS 3 Xrotation Yrotation Zrotation
				JOINT LeftToeBase
				{
					OFFSET 0.00000 -1.51897 5.66885
					CHANNELS 3 Xrotation Yrotation Zrotation
					End Site
					{
						OFFSET 0.00000 0.00000 2.95273
					}
				}
			}
		}
	}
	JOINT RightUpLeg
	{
		OFFSET -3.66344 0.00000 0.00000
		CHANNELS 3 Xrotation Yrotation Zrotation
		JOINT RightLeg
		{
			OFFSET 0.00000 -16.09471 0.00000
			CHANNELS 3 Xrotation Yrotation Zrotation
			JOINT RightFoot
			{
				OFFSET 0.00000 -15.20357 0.00000
				CHANNELS 3 Xrotation Yrotation Zrotation
				JOINT RightToeBase
				{
					OFFSET 0.00000 -1.51897 5.66885
					CHANNELS 3 Xrotation Yrotation Zrotation
					End Site
					{
						OFFSET 0.00000 0.00000 2.95273
					}
				}
			}
		}
	}
	JOINT Spine
	{
		OFFSET 0.00000 0.03937 0.00000
		CHANNELS 3 Xrotation Yrotation Zrotation
		JOINT Spine1
		{
			OFFSET 0.00000 8.11179 0.00000
			CHANNELS 3 Xrotation Yrotation Zrotation
			JOINT Neck
			{
				OFFSET 0.00000 7.82546 0.00000
				CHANNELS 3 Xrotation Yrotation Zrotation
				JOINT Head
				{
					OFFSET 0.00000 5.66611 0.00000
					CHANNELS 3 Xrotation Yrotation Zrotation
					End Site
					{
						OFFSET 0.00000 4.52753 0.00000
					}
				}
			}
			JOINT LeftShoulder
			{
				OFFSET 0.00000 7.82546 0.00000
				CHANNELS 3 Xrotation Yrotation Zrotation
				JOINT LeftArm
				{
					OFFSET 6.38379 -0.00002 0.00000
					CHANNELS 3 Xrotation Yrotation Zrotation
					JOINT LeftForeArm
					{
						OFFSET 10.84793 -0.00004 0.00000
						CHANNELS 3 Xrotation Yrotation Zrotation
						JOINT LeftHand
						{
							OFFSET 7.69573 -0.00003 0.00000
							CHANNELS 3 Xrotation Yrotation Zrotation
							JOINT LeftHandThumb
							{
								OFFSET 0.00000 0.00000 0.00000
								CHANNELS 3 Xrotation Yrotation Zrotation
								End Site
								{
									OFFSET 0.00000 0.00000 3.93698
								}
							}
							JOINT L_Wrist_End
							{
								OFFSET 3.93698 -0.00001 0.00000
								CHANNELS 3 Xrotation Yrotation Zrotation
							}
						}
					}
				}
			}
			JOINT RightShoulder
			{
				OFFSET 0.00000 7.82546 0.00000
				CHANNELS 3 Xrotation Yrotation Zrotation
				JOINT RightArm
				{
					OFFSET -6.38379 -0.00002 0.00000
					CHANNELS 3 Xrotation Yrotation Zrotation
					JOINT RightForeArm
					{
						OFFSET -10.84793 -0.00004 0.00000
						CHANNELS 3 Xrotation Yrotation Zrotation
						JOINT RightHand
						{
							OFFSET -7.69573 -0.00003 0.00000
							CHANNELS 3 Xrotation Yrotation Zrotation
							JOINT RightHandThumb
							{
								OFFSET 0.00000 0.00000 0.00000
								CHANNELS 3 Xrotation Yrotation Zrotation
								End Site
								{
									OFFSET 0.00000 0.00000 3.93698
								}
							}
							JOINT R_Wrist_End
							{
								OFFSET -5.39367 -0.00002 0.00000
								CHANNELS 3 Xrotation Yrotation Zrotation
							}
						}
					}
				}
			}
		}
	}
}
MOTION
Frames: 9
Frame Time: 0.033332
 -22.0797 34.0314 -7.0338 -52.1699 -79.2822 -51.5958 -23.4079 -2.7290 -0.8657 89.8432 -0.0000 -0.0000 -27.4487 10.1513 5.1494 -7.0754 0.0000 0.0000 10.0350 -7.0577 5.5691 4.4662 -0.0000 -0.0000 -3.6949 6.4903 0.7399 -8.3774 0.0000 -0.0000 9.5968 6.6038 3.9043 -0.8063 1.5418 -5.6748 -4.3130 10.4760 0.3859 -20.9266 -4.8305 -0.8531 -0.9877 8.8101 9.3352 0.1380 -40.0693 -88.5459 0.0000 -7.0409 -0.0000 -4.5274 8.9922 -7.4256 -0.0000 0.0000 -0.0000 -0.0000 0.0000 -0.0000 -2.6275 -24.0615 -15.7692 -43.5193 -15.2550 64.8147 -179.9997 50.7437 179.9995 -61.3077 19.7092 11.8001 -0.0000 0.0000 -0.0000 -0.0000 0.0000 -0.0000
 -22.2635 34.0940 -7.0073 -58.4324 -80.4053 -57.4734 -15.5299 -2.9294 -0.6319 68.3782 -0.0000 0.0000 -27.0705 12.0281 6.4727 -7.0222 0.0000 -0.0000 10.6394 -5.7103 5.1324 2.8806 0.0000 -0.0000 -2.5285 6.7469 -0.6692 -8.5520 0.0000 0.0000 9.0952 7.7106 3.6690 -1.3803 2.6093 -6.5207 -4.9668 10.7146 0.3991 -18.5703 -5.8885 0.2613 -1.1609 9.5357 10.0183 0.5858 -40.6269 -88.2993 -0.0000 -6.7456 0.0000 -2.7574 9.5320 -6.6638 -0.0000 0.0000 -0.0000 -0.0000 0.0000 -0.0000 -2.5980 -24.4922 -15.4951 -37.6869 -13.1220 69.4527 -179.9997 52.2653 179.9994 -62.1865 19.7891 11.9269 -0.0000 0.0000 -0.0000 -0.0000 0.0000 -0.0000
 -22.5002 33.9602 -7.0919 -66.0484 -81.1031 -66.7391 -4.2074 -3.4697 2.3092 38.6224 -0.0000 -0.0000 -22.0178 10.4556 4.5651 -7.2646 -0.0000 -0.0000 11.0024 -1.9093 6.9142 2.2478 0.0000 -0.0000 -2.0257 4.8372 -1.9785 -8.2991 0.0000 0.0000 8.2591 8.3170 4.2108 -1.5363 3.4083 -5.6311 -6.2621 11.2670 0.4221 -15.6314 -6.4555 1.1999 -1.2693 9.9652 10.2763 1.6073 -38.0915 -87.9734 -0.0000 -7.0572 -0.0000 -3.0830 9.4393 -6.5611 -0.0000 0.0000 -0.0000 -0.0000 0.0000 -0.0000 -2.2461 -24.5889 -15.3422 -30.8601 -4.2351 70.9661 -179.9997 58.1236 179.9994 -60.5986 19.6364 11.2639 -0.0000 0.0000 -0.0000 -0.0000 0.0000 -0.0000
 -22.6548 33.6829 -7.1724 -73.8856 -82.1547 -77.1737 6.5115 -5.6026 6.2377 12.6730 -0.0000 0.0000 -11.8439 10.8727 -8.9925 -8.2415 0.0000 -0.0000 9.5239 2.1466 9.3822 3.4964 -0.0000 -0.0000 -3.3661 3.2577 -0.9809 -8.2635 -0.0000 0.0000 6.9916 8.1972 4.9322 -1.6227 3.6118 -3.4555 -7.7221 12.4219 0.5231 -13.5945 -6.2704 1.7915 -0.9032 10.2040 9.3363 3.0950 -34.1634 -87.3110 0.0000 -7.4315 0.0000 -5.9167 8.1131 -6.3466 -0.0000 0.0000 -0.0000 -0.0000 0.0000 -0.0000 -1.6290 -24.7379 -14.0969 -25.9052 9.1772 67.6058 -179.9995 67.3223 179.9992 -59.2255 19.9375 10.9347 -0.0000 0.0000 -0.0000 -0.0000 0.0000 -0.0000
 -22.7688 33.8011 -7.0052 -85.8689 -83.4836 -86.4256 9.7488 -5.2410 3.5000 4.8685 0.0000 0.0000 -8.6419 11.2846 -8.7158 -6.6742 -0.0000 -0.0000 8.1387 2.5021 6.0958 4.6909 -0.0000 -0.0000 -4.5042 4.5586 0.6299 -8.4457 0.0000 0.0000 5.9389 7.7466 2.7260 -1.8837 2.7951 -4.1951 -6.3557 14.2706 0.4469 -15.1954 -6.2989 3.2334 0.8911 10.8557 5.6920 4.8065 -31.7315 -83.6078 -0.0000 -6.8122 -0.0000 -8.5018 7.0091 -5.9403 -0.0000 0.0000 -0.0000 -0.0000 0.0000 -0.0000 1.5114 -25.4425 -9.1157 -21.7088 25.2704 59.7671 -179.9990 78.1135 179.9988 -62.9140 20.4936 12.3498 -0.0000 0.0000 -0.0000 -0.0000 0.0000 -0.0000
 -22.8843 33.9342 -7.1992 -70.3050 -83.1597 -69.8359 10.1882 7.6993 4.2390 2.7839 0.0000 -0.0000 -9.4550 -2.5419 -16.0195 -7.1606 0.0000 0.0000 8.8643 1.6078 5.9256 3.7783 -0.0000 0.0000 -3.5740 2.7043 -3.0235 -8.2299 0.0000 0.0000 5.6371 6.4409 2.3002 -2.0011 1.5446 -6.4541 -7.9932 14.8851 -0.3239 -11.3386 -7.8809 8.1028 -0.5366 11.2308 9.0441 5.1650 -34.8778 -85.0954 -0.0000 -6.2863 0.0000 -4.3987 8.9215 -5.0866 -0.0000 0.0000 -0.0000 -0.0000 0.0000 -0.0000 1.3556 -25.9955 -10.5745 -13.8292 34.4005 57.0832 -179.9973 85.5813 179.9971 -67.1885 21.0992 14.6970 -0.0000 0.0000 -0.0000 -0.0000 0.0000 -0.0000
 -22.6613 33.9679 -7.2309 -46.7887 -81.4779 -46.1944 4.6446 6.7602 5.1689 12.1167 -0.0000 -0.0000 -13.9216 -1.7676 -12.5328 -7.8777 -0.0000 -0.0000 7.9576 -0.6477 6.2038 4.7897 0.0000 0.0000 -3.6949 1.3122 -3.0715 -8.0592 -0.0000 -0.0000 5.8852 5.4452 2.9814 -1.3098 0.7843 -7.7382 -8.4061 13.2536 -0.0303 -12.6084 -7.7329 6.9477 -1.7317 9.1498 10.5163 4.3837 -37.5692 -86.3086 0.0000 -6.0249 -0.0000 -2.6612 9.8351 -5.6973 -0.0000 0.0000 -0.0000 -0.0000 0.0000 -0.0000 0.7202 -26.3523 -11.4577 -6.1535 37.3717 49.7973 -179.9969 86.0702 179.9967 -70.4812 21.3984 16.2279 -0.0000 0.0000 -0.0000 -0.0000 0.0000 -0.0000
 -22.3684 33.8509 -7.2519 -38.0381 -78.9719 -38.6008 -2.9317 3.2610 6.6057 29.9865 -0.0000 0.0000 -18.6737 2.5475 -5.0149 -7.4463 0.0000 0.0000 8.1091 -4.1220 7.3271 5.5844 0.0000 0.0000 -4.3989 2.5897 -0.6594 -8.3044 -0.0000 -0.0000 7.1516 4.7714 3.8027 -0.8693 0.0452 -6.0822 -6.9973 11.4089 -0.1642 -17.1873 -5.5985 3.1881 -1.3590 8.0633 9.7244 3.1487 -39.9056 -86.4907 0.0000 -6.9926 0.0000 -3.9675 9.0634 -7.6096 -0.0000 -0.0000 0.0000 -0.0000 -0.0000 0.0000 0.2104 -26.3600 -12.7147 -0.9512 37.4771 40.5799 -179.9982 83.3205 179.9980 -73.2542 21.6215 17.2294 -0.0000 0.0000 -0.0000 -0.0000 0.0000 -0.0000
 -22.1182 33.6709 -7.3125 -39.5060 -77.1010 -41.8676 -9.5617 0.8963 8.2777 49.8373 0.0000 -0.0000 -22.6970 6.4953 -4.3523 -7.2154 0.0000 0.0000 9.3756 -5.1957 9.2640 5.7187 0.0000 -0.0000 -5.1826 2.6929 1.0199 -8.3093 0.0000 0.0000 9.0892 4.5075 4.6598 -0.2958 -0.3567 -3.6508 -5.3761 10.3680 -0.5042 -22.1957 -3.6518 0.6187 -1.0081 8.1299 9.0535 1.5582 -39.9319 -87.1915 0.0000 -7.7755 0.0000 -5.3629 8.0938 -8.1564 -0.0000 0.0000 -0.0000 -0.0000 0.0000 -0.0000 -0.6697 -26.2742 -14.0739 -0.9311 35.7098 34.3211 -179.9987 80.6595 179.9985 -73.4934 21.3995 17.6807 -0.0000 0.0000 -0.0000 -0.0000 0.0000 -0.0000
